<svg id="giftbox" enable-background="new 0 0 511.801 511.801" height="512" viewBox="0 0 511.801 511.801" width="512" xmlns="http://www.w3.org/2000/svg">
    <g>
        <g id="bottom">
            <path d="m255.9 428.012-195-165v77.578l24.98 39.979 118.126 118.127 28.105 13.105h23.789 23.789l36.856-21.856 113.124-113.124 21.231-36.231v-77.578z" fill="#ff435b"/>
            <path d="m316.545 489.945 113.124-113.124 21.231-36.231v-77.578l-195 165v83.789h23.789z" fill="#d0004f"/>
            <path d="m255.9 385.59-195-165v42.422l195 195 195-195v-42.422z" fill="#fed843"/>
            <path d="m450.9 220.59-195 165v72.422l195-195z" fill="#fabe2c"/>
            <path d="m382.111 211.801-126.211 96.211-126.211-96.211h-68.789v8.789l195 195 195-195v-8.789z" fill="#ff435b"/>
            <path d="m450.9 211.801h-68.789l-126.211 96.211v107.578l195-195z" fill="#d0004f"/>
            <path d="m339.689 211.801-83.789 53.789-83.789-53.789h-42.422l126.211 126.211 126.211-126.211z" fill="#fed843"/>
            <path d="m339.689 211.801-83.789 53.789v72.422l126.211-126.211z" fill="#fabe2c"/>
            <path d="m255.9 211.801h-83.789l83.789 83.789 83.789-83.789z" fill="#ff435b"/>
            <path d="m255.9 211.801v83.789l83.789-83.789z" fill="#d0004f"/>
            <path d="m450.9 511.801v-128.789l-30.332 15.332-77.5 77.5-20.957 35.957z" fill="#d0004f"/>
            <path d="m60.9 511.801h128.789l-3.769-18.769-88.75-88.75-36.27-21.27z" fill="#ff435b"/>
            <path d="m218.844 241.801 37.056 23.789v-23.789z" fill="none"/>
            <path d="m60.9 340.59v42.422l128.789 128.789h42.422z" fill="#fed843"/>
            <path d="m279.689 511.801h42.422l128.789-128.789v-42.422z" fill="#fabe2c"/>
        </g>
        <g id="top">
            <g id="lint">
                <path d="m404.597 3.042c-3.741.152-67.941-16.719-114.521 29.678-19.286 19.222-31.789 44.974-34.175 73.255-2.142-25.386-11.858-53.434-31.743-73.255-47.17-47.01-109.812-29.487-114.521-29.678.189 4.642-17.437 67.275 29.648 114.492 21.753 21.826 51.782 33.604 84.448 33.604h32.167 34.6c32.666 0 62.695-11.777 84.448-33.604 46.928-47.06 29.462-109.861 29.649-114.492z" fill="#5ab267"/>
                <path d="m374.948 117.534c46.928-47.06 29.462-109.861 29.649-114.492-3.741.152-67.941-16.719-114.521 29.678-19.286 19.222-31.789 44.974-34.175 73.255v45.163h34.6c32.665 0 62.694-11.778 84.447-33.604z" fill="#288c64"/>
            </g>
            <path d="m315.9 120.801-30 30h-30-30l-30-30h-165v121h165l30-30h30 30l30 30h165v-121z" fill="#ff7b4a"/>
            <path d="m315.9 241.801h165v-121h-165l-30 30h-30v61h30z" fill="#ff435b"/>
            <path d="m255.9 120.801h-60v121h60 60v-121z" fill="#8cd96b"/>
            <path d="m255.9 120.801h60v121h-60z" fill="#5ab267"/>
        </g>
    </g>
</svg>